<svg id="Calque_1" data-name="Calque 1" xmlns="http://www.w3.org/2000/svg" viewBox="0 0 300 300"><defs><style>.cls-1{fill:none;}.cls-2{fill:#1d1d1b;}</style></defs><rect class="cls-1" width="300" height="300"/><g id="dff727ea-c914-4c1d-9325-86d683f65698"><path d="M113.21,149.49h0a4.83,4.83,0,0,1-.24-1.7h0c0-.73.25-2.87.74-6.44h0a64.48,64.48,0,0,0,.74-8.57h0c0-.51,0-1.2-.1-2.08h0c1.27.07,2.08.37,2.4.9h0a3,3,0,0,1,.33.89h0a8.27,8.27,0,0,1,.07,1.32h0q0,.88-.81,6.74h0a70.43,70.43,0,0,0-.85,8.36h0a1.53,1.53,0,0,1,.45,0h0a32,32,0,0,0,8.15-.76h0a3.76,3.76,0,0,1-1,2.28h0a2.84,2.84,0,0,1-2.06.81h0c-.24,0-1,0-2.19-.16h0c-1.23-.11-2.42-.16-3.56-.16h0a19.37,19.37,0,0,0-3.46.32h0A2.89,2.89,0,0,1,113.21,149.49Zm16.65-8.4h0a12.92,12.92,0,0,0-1.12,2.61h0a9,9,0,0,0-.4,2.55h0a3.68,3.68,0,0,0,.55,2.06h0a1.73,1.73,0,0,0,1.55.85h0a3.44,3.44,0,0,0,2.66-1.56h0a11.22,11.22,0,0,0,1.92-3.78h0a14.52,14.52,0,0,0,.67-4.1h0a25.93,25.93,0,0,0-.15-3.09h0l.76-.06h0a1.93,1.93,0,0,1,2.15,2.21h0c0,.31-.2,1.61-.61,3.91h0a33.63,33.63,0,0,0-.6,5.49h0a8.21,8.21,0,0,0,.78,3.66h0a3.52,3.52,0,0,1-2.32-1.41h0a5.57,5.57,0,0,1-.72-3.1h0c0-.24,0-.7.11-1.37h0a7.75,7.75,0,0,1-2.41,3.87h0a5.24,5.24,0,0,1-3.38,1.48h0a3.24,3.24,0,0,1-2.67-1.26h0a5.34,5.34,0,0,1-1-3.46h0a11.67,11.67,0,0,1,.84-4.34h0a9.5,9.5,0,0,1,2.47-3.65h0a5.27,5.27,0,0,1,3.71-1.56h0a6.14,6.14,0,0,1,2,.36h0a7.19,7.19,0,0,0-2.75,1.4h0A8.51,8.51,0,0,0,129.86,141.09Zm25.48-7.68h0l0,.31h0q0,.94-.72,6.29h0a68.29,68.29,0,0,0-.72,8.9h0a14.31,14.31,0,0,0,.16,2.47h0l-.67.06h0a2.4,2.4,0,0,1-1.7-.53h0a2.28,2.28,0,0,1-.54-1.7h0q0-1.17.85-7.19h0a72.7,72.7,0,0,0,.83-8.58h0a10.59,10.59,0,0,0-.34-3.36h0a3.1,3.1,0,0,1,1.5.63h0a3,3,0,0,1,1,1.38h0a9,9,0,0,1,4.31-1h0a4.86,4.86,0,0,1,3.71,1.44h0a5.09,5.09,0,0,1,1.35,3.58h0a7.07,7.07,0,0,1-2,4.89h0a6.86,6.86,0,0,1-5.32,2.15h0a9.94,9.94,0,0,1-1.39-.09h0l-.07-.81h0a8,8,0,0,0,3-.51h0a4.43,4.43,0,0,0,1.91-1.34h0a5.93,5.93,0,0,0,1.29-3.8h0a3.63,3.63,0,0,0-1-2.62h0a3.79,3.79,0,0,0-2.89-1h0A8.09,8.09,0,0,0,155.34,133.41ZM170,141.09h0a11.5,11.5,0,0,0-1.14,2.61h0a9.33,9.33,0,0,0-.38,2.55h0a3.76,3.76,0,0,0,.54,2.06h0a1.73,1.73,0,0,0,1.56.85h0a3.49,3.49,0,0,0,2.66-1.56h0a11.38,11.38,0,0,0,1.9-3.78h0a14.21,14.21,0,0,0,.68-4.1h0a23.72,23.72,0,0,0-.16-3.09h0l.76-.06h0a1.93,1.93,0,0,1,2.15,2.21h0c0,.31-.2,1.61-.6,3.91h0a32.74,32.74,0,0,0-.61,5.49h0a8.21,8.21,0,0,0,.78,3.66h0a3.5,3.5,0,0,1-2.32-1.41h0a5.57,5.57,0,0,1-.72-3.1h0c0-.24,0-.7.11-1.37h0a7.75,7.75,0,0,1-2.41,3.87h0a5.2,5.2,0,0,1-3.38,1.48h0a3.28,3.28,0,0,1-2.68-1.26h0a5.4,5.4,0,0,1-1-3.46h0a11.86,11.86,0,0,1,.83-4.34h0a9.64,9.64,0,0,1,2.48-3.65h0a5.31,5.31,0,0,1,3.71-1.56h0a6.14,6.14,0,0,1,1.95.36h0a7,7,0,0,0-2.73,1.4h0A8,8,0,0,0,170,141.09Zm24.21-1.1h0a30.4,30.4,0,0,1-.48,4.11h0a29,29,0,0,0-.49,4.3h0a4.42,4.42,0,0,0,.32,1.94h0a2.66,2.66,0,0,0,1.12,1h0c-.22,0-.54,0-.94,0h0a3.6,3.6,0,0,1-2.44-.65h0a3,3,0,0,1-.72-2.31h0a27,27,0,0,1,.51-3.78h0a27.69,27.69,0,0,0,.5-4.2h0c0-1.11-.34-1.66-1-1.66h0q-1.63,0-3.36,2.86h0a13,13,0,0,0-1.74,6.89h0a14.31,14.31,0,0,0,.16,2.47h0l-.79.06h0a2,2,0,0,1-2.23-2.19h0c0-.34.18-1.63.54-3.89h0a37.49,37.49,0,0,0,.53-5.4h0a15.24,15.24,0,0,0-.43-3.71h0a3.83,3.83,0,0,1,2.09,1.64h0A5,5,0,0,1,186,140h0a19,19,0,0,1-.31,3.2h0a12.12,12.12,0,0,1,2.62-4.81h0c1.19-1.31,2.3-2,3.33-2h0Q194.25,136.39,194.24,140Zm12.14-2.86h0a2.1,2.1,0,0,1-.4,1.47h0a1.68,1.68,0,0,1-1.19.4H203c-.07.44-.25,1.49-.52,3.14h0a42.85,42.85,0,0,0-.87,7.11h0a9.16,9.16,0,0,0,.36,3.2h0a3.81,3.81,0,0,1-2.06-1.61h0a5.34,5.34,0,0,1-.6-2.62h0a22.6,22.6,0,0,1,.18-2.93h0c.14-.92.32-2,.55-3.22h0c.24-1.24.41-2.23.5-3h0a10.93,10.93,0,0,0-2.84.82h0c0-.28,0-.53,0-.74h0a1.66,1.66,0,0,1,.79-1.63h0a5.19,5.19,0,0,1,2.33-.42h0c.13-1.25.19-2.18.19-2.8h0c0-.61,0-1.11,0-1.48h0V132h0a2.62,2.62,0,0,1,1.79,1h0a3.73,3.73,0,0,1,.63,2.31h0a15.3,15.3,0,0,1-.13,1.85h0a4.92,4.92,0,0,0,3.11-.75h0A4.25,4.25,0,0,1,206.38,137.13Zm4.76,6h0a12.4,12.4,0,0,1,2.56-4.81h0c1.16-1.31,2.25-2,3.26-2h0a2.43,2.43,0,0,1,2.15.92h0a4.43,4.43,0,0,1,.63,2.52h0a28.74,28.74,0,0,1-.48,4.43h0a27.7,27.7,0,0,0-.49,4.18h0a4.31,4.31,0,0,0,.32,1.9h0a2.69,2.69,0,0,0,1.11,1h0q-.33,0-.93,0h0a3.66,3.66,0,0,1-2.4-.66h0a3,3,0,0,1-.76-2.3h0a28,28,0,0,1,.5-3.78h0a26.75,26.75,0,0,0,.51-4.2h0c0-1.11-.39-1.66-1.17-1.66h0a2.42,2.42,0,0,0-1.52.72h0a8.34,8.34,0,0,0-1.61,1.94h0a12,12,0,0,0-1.29,3.13h0a13.71,13.71,0,0,0-.52,3.7h0a16.45,16.45,0,0,0,.16,2.73h0l-.69.06h0a2.54,2.54,0,0,1-1.75-.51h0a2,2,0,0,1-.58-1.59h0a35.43,35.43,0,0,1,.45-4.14h0a109.26,109.26,0,0,0,1.34-14.31h0a9.58,9.58,0,0,0-.29-3h0a3.7,3.7,0,0,1,2.06,1.57h0a5.77,5.77,0,0,1,.6,2.86h0c0,.84-.17,2.62-.51,5.32h0q-.48,4-.66,5.87Zm19.15-5.46h0a3,3,0,0,0-2.57,1.74h0a10.88,10.88,0,0,0-1.41,4.1h.7a6.42,6.42,0,0,0,2.34-.38h0a4,4,0,0,0,1.52-1h0a4,4,0,0,0,1-2.64h0a2.08,2.08,0,0,0-.4-1.34h0A1.41,1.41,0,0,0,230.29,137.71ZM233.85,148h0a7.09,7.09,0,0,1-2.55,2.65h0a6.63,6.63,0,0,1-3.24.76h0a4.1,4.1,0,0,1-3.2-1.62h0a6.88,6.88,0,0,1-1.37-4.56h0a10.24,10.24,0,0,1,1.81-6h0a6.87,6.87,0,0,1,2.31-2.06h0a6.45,6.45,0,0,1,3.15-.78h0c2.53,0,3.79,1.23,3.79,3.67h0a4,4,0,0,1-1.7,3.46h0a6.55,6.55,0,0,1-4,1.25h0a12.21,12.21,0,0,1-2.69-.28h0c0,.17,0,.43,0,.78h0q0,4.48,2.66,4.49h0a4.7,4.7,0,0,0,4.07-2.48h0c.63.08.94.31.94.69Zm-.51-13.48h0a.82.82,0,0,1-.27.53h0a1.18,1.18,0,0,1-.54.31h0a13.59,13.59,0,0,0-2.33-2.25h0a9.18,9.18,0,0,0-2.92-1.57h0a2.51,2.51,0,0,1,1.23-2.08h0a7.66,7.66,0,0,1,2.77,2.1h0A11.3,11.3,0,0,1,233.34,134.49Zm7.47,8.29h0a13.28,13.28,0,0,1,2.19-4.85h0a3.43,3.43,0,0,1,2.39-1.56h0a1.85,1.85,0,0,1,1.64.82h0a3.61,3.61,0,0,1,.56,2.1h0a3.63,3.63,0,0,1-.65,2.18h0a2.22,2.22,0,0,1-1.93.93h0a2.72,2.72,0,0,1-.64-.06h0a4.37,4.37,0,0,0,.87-2.53h0c0-.6-.24-.9-.74-.9h0a1.82,1.82,0,0,0-1.23.67h0a7.29,7.29,0,0,0-1.26,1.89h0a13.28,13.28,0,0,0-1,3.17h0a20.74,20.74,0,0,0-.41,4.21h0c0,.17,0,.89.12,2.15h0l-.76.06h0a2,2,0,0,1-2.22-2.19h0c0-.34.18-1.63.54-3.89h0a37.49,37.49,0,0,0,.53-5.4h0a14.75,14.75,0,0,0-.44-3.71h0a3.86,3.86,0,0,1,2.1,1.64h0a5.13,5.13,0,0,1,.6,2.52h0a15.38,15.38,0,0,1-.24,2.75Zm14.92-5.07h0a3,3,0,0,0-2.58,1.74h0a11.05,11.05,0,0,0-1.4,4.1h.71a6.36,6.36,0,0,0,2.33-.38h0a3.87,3.87,0,0,0,1.52-1h0a3.94,3.94,0,0,0,1-2.64h0a2.13,2.13,0,0,0-.39-1.34h0A1.44,1.44,0,0,0,255.73,137.71ZM259.29,148h0a7.09,7.09,0,0,1-2.55,2.65h0a6.56,6.56,0,0,1-3.23.76h0a4.09,4.09,0,0,1-3.2-1.62h0a6.82,6.82,0,0,1-1.38-4.56h0a10.31,10.31,0,0,1,1.81-6h0a6.81,6.81,0,0,1,2.32-2.06h0a6.44,6.44,0,0,1,3.14-.78h0c2.53,0,3.8,1.23,3.8,3.67h0a4.06,4.06,0,0,1-1.7,3.46h0a6.6,6.6,0,0,1-4,1.25h0a12.31,12.31,0,0,1-2.7-.28h0c0,.17,0,.43,0,.78h0c0,3,.88,4.49,2.66,4.49h0a4.67,4.67,0,0,0,4.06-2.48h0c.63.08.94.31.94.69Z"/></g><g id="dfe8044c-91b6-4966-9038-a63642c35301"><path class="cls-2" d="M65.55,147.45v0a3.65,3.65,0,0,0-2.26-1.75H63.2a7.29,7.29,0,0,0-1.6-.3,10,10,0,0,1-4.12-1.53.48.48,0,0,0-.66.17.47.47,0,0,0,.12.63,12.27,12.27,0,0,0,1.28.71c0,.06-.06.13-.08.2a3.92,3.92,0,0,0,2.66,4.82,4.49,4.49,0,0,0,1.15.16,3.83,3.83,0,0,0,3-1.47,6.92,6.92,0,0,1-.12,1.93.49.49,0,0,0,.26.63h.2a.48.48,0,0,0,.45-.33,7.27,7.27,0,0,0,.15-2.63A3.24,3.24,0,0,0,65.55,147.45Zm-2.87-1a.65.65,0,0,1,0,.34.83.83,0,0,1-1,.58.85.85,0,0,1-.58-1l.06-.11.38.05a6.82,6.82,0,0,1,1.2.19Zm.61,2.73a3,3,0,0,1-2.24.21,3,3,0,0,1-2-3.64v-.08a8.63,8.63,0,0,0,1.09.35v0a1.79,1.79,0,1,0,3.42,1.09,1.87,1.87,0,0,0,.08-.34,2.59,2.59,0,0,1,.95.85,2.74,2.74,0,0,1-1.28,1.52Zm17.38-3.69c0-.08,0-.13-.08-.2a10.13,10.13,0,0,0,1.29-.72.48.48,0,0,0-.54-.79,10,10,0,0,1-4.13,1.53,7.37,7.37,0,0,0-1.61.3h-.08a3.68,3.68,0,0,0-2.27,1.76v0a3.2,3.2,0,0,0-.35,1.25,7.75,7.75,0,0,0,.15,2.63.49.49,0,0,0,1-.15.55.55,0,0,0,0-.17,6.2,6.2,0,0,1-.12-1.92,3.76,3.76,0,0,0,3,1.46,4,4,0,0,0,1.15-.16,3.91,3.91,0,0,0,2.68-4.83Zm-3.4.78.39-.05a.54.54,0,0,1,0,.11.83.83,0,0,1-.57,1,.82.82,0,0,1-1-.54.92.92,0,0,1,0-.37,7.82,7.82,0,0,1,1.18-.18Zm.47,3.12a3,3,0,0,1-2.23-.21,2.75,2.75,0,0,1-1.29-1.53,2.65,2.65,0,0,1,1-.84,2,2,0,0,0,0,.24,1.78,1.78,0,0,0,3.48-.55,1.52,1.52,0,0,0-.06-.42v0a8.77,8.77,0,0,0,1.1-.35v.08A3,3,0,0,1,77.74,149.43Z"/><path class="cls-2" d="M67.05,146.69c-.11-1.44-1.29-2.36-3.31-2.51a7.39,7.39,0,0,1-3-1.09.48.48,0,1,0-.53.81,8.27,8.27,0,0,0,3.46,1.23c.87.07,2.33.37,2.42,1.63a.49.49,0,0,0,.48.45h0A.49.49,0,0,0,67.05,146.69Zm8.32-1.56a8.26,8.26,0,0,0,3.47-1.23.48.48,0,0,0,.13-.67.49.49,0,0,0-.67-.14,7.37,7.37,0,0,1-3,1.11c-2,.15-3.21,1.07-3.31,2.51a.48.48,0,0,0,.45.52h0a.47.47,0,0,0,.48-.45C73,145.48,74.53,145.2,75.37,145.13Zm-15.82-3.34a.48.48,0,0,0,.67.09.49.49,0,0,0,.09-.68l0,0-2-2.51a.48.48,0,0,0-.67-.09.49.49,0,0,0-.09.68l0,0Zm2.15-1.39a.48.48,0,0,0,.45.31.48.48,0,0,0,.48-.49.4.4,0,0,0,0-.15l-.9-2.36a.49.49,0,0,0-.63-.28.48.48,0,0,0-.27.62Zm2.57.07a.48.48,0,0,0,.48-.44l.16-2a.48.48,0,0,0-.44-.52h0a.47.47,0,0,0-.52.42v0L63.79,140a.48.48,0,0,0,.45.51Z"/><path class="cls-2" d="M98.47,157c-2.5-.8-8.39-.73-13.18-.51,3.21-4.05,3.21-8,2.64-9.8-.44-1.38-1.11-4.86-.25-6.21a1,1,0,0,1,.75-.49c1.13-.15,1.34-1.33,1.5-2.26a5.46,5.46,0,0,1,.22-1,2.67,2.67,0,0,1,.79-.88,6.91,6.91,0,0,0,2-2.71c1-2.51-.35-3.75-.41-3.8a.37.37,0,0,0-.18-.08H92.3a3.92,3.92,0,0,0-3.08.46c-.44.22-1,.47-1.77.81a4.43,4.43,0,0,1-5.14-.85c-2.88-2.77-4.92-3.57-12.88-3.57s-10,.8-12.83,3.57a4.41,4.41,0,0,1-5.13.85q-.9-.37-1.77-.81a3.94,3.94,0,0,0-3.09-.46h-.09a.38.38,0,0,0-.17.08c-.06.05-1.43,1.28-.41,3.8a6.81,6.81,0,0,0,2,2.71,2.64,2.64,0,0,1,.78.88,4.88,4.88,0,0,1,.11,1c.16.95.36,2.11,1.5,2.26a1,1,0,0,1,.75.49c.86,1.36.19,4.84-.25,6.21-.58,1.85-.55,5.78,2.64,9.81-4.78-.22-10.67-.29-13.18.5a.48.48,0,1,0,.3.92c2.62-.83,9.62-.64,13.59-.42h.16l.41.44c-4.92.07-8.27.41-9.94,1a.48.48,0,1,0,.3.92h0c1.65-.6,5.32-.93,10.62-1l.69.56c-4.15.23-10.91.78-13.47,1.93a.47.47,0,0,0-.2.65.48.48,0,0,0,.58.23c2.68-1.18,10.38-1.7,14.25-1.9l.65.47.06,0c-4,.39-6.79.9-8.2,1.52a.48.48,0,0,0,.38.87c1.33-.58,4.14-1.08,8.16-1.46a12.68,12.68,0,0,0,.44,3.52c1,2.77,2.47,3.45,4.14,3.59a3.53,3.53,0,0,0,1,1.16A9.71,9.71,0,0,0,62.08,173a.48.48,0,1,0,.9.34,9,9,0,0,1,2.11-2.68,7.38,7.38,0,0,0,1.28.5,7.24,7.24,0,0,0-.59,2.2.48.48,0,0,0,.46.5h0a.48.48,0,0,0,.48-.45,6.48,6.48,0,0,1,.58-2,12.87,12.87,0,0,0,4.2,0,6.48,6.48,0,0,1,.58,2,.49.49,0,0,0,.48.45.48.48,0,0,0,.46-.5h0a7.35,7.35,0,0,0-.57-2.21,6.66,6.66,0,0,0,1.28-.5,9.13,9.13,0,0,1,2.11,2.69.48.48,0,0,0,.9-.35,9.84,9.84,0,0,0-2.18-2.87,3.53,3.53,0,0,0,1-1.16c1.67-.14,3.1-.81,4.14-3.58a12.51,12.51,0,0,0,.41-3.5c4,.38,6.84.88,8.16,1.46a.48.48,0,0,0,.66-.2.49.49,0,0,0-.2-.65l-.07,0c-1.42-.64-4.23-1.13-8.34-1.52l.51-.36.2-.14c3.85.19,11.68.71,14.38,1.92a.48.48,0,0,0,.39-.88c-2.61-1.14-9.37-1.68-13.52-1.92.25-.19.48-.37.71-.57,5.32,0,9,.37,10.65,1a.47.47,0,0,0,.6-.3.48.48,0,0,0-.28-.6c-1.66-.6-5-.94-9.94-1l.42-.44h.16c3.94-.2,11-.41,13.59.43a.52.52,0,0,0,.3-1ZM71.52,169.16a.48.48,0,0,0-.65-.18.49.49,0,0,0-.18.66c.1.17.25.45.41.77a11.75,11.75,0,0,1-3.35,0c.23-.46.41-.76.41-.77A.48.48,0,0,0,68,169a.49.49,0,0,0-.66.18s-.27.47-.56,1.06a4.47,4.47,0,0,1-2.3-1.28H66a3.86,3.86,0,0,0,3.37-2,3.84,3.84,0,0,0,3.39,2h1.56a4.5,4.5,0,0,1-2.29,1.29c-.29-.58-.54-1-.56-1.05Zm11-11.07,0,0c-.54.45-1.13.89-1.72,1.29h-.5a3.85,3.85,0,0,1,.69-2.38.49.49,0,0,0,.08-.69.48.48,0,0,0-.68-.08c-.65.53-.93,1.69-1,3.1h-.39a.46.46,0,0,0-.49.44v0a.48.48,0,0,0,.46.5h.36v.47h-.11a.48.48,0,0,0-.09,1h.14a12.63,12.63,0,0,1-.36,3.24c-.91,2.4-2,2.91-3.56,3H72.79a2.92,2.92,0,0,1-2.9-2.86,3.27,3.27,0,0,1,.74-.54c.64-.41,1.59-1,1.24-1.79-.12-.28,0-.42,1.07-1.17l.4-.28a1.57,1.57,0,0,0,.83-1.28,1.29,1.29,0,0,0-.61-1,.47.47,0,0,0-.64.14.49.49,0,0,0,.14.64.48.48,0,0,1,.17.24c0,.09-.11.26-.42.48l-.4.27c-1,.71-1.87,1.29-1.41,2.29,0,.16-.57.48-.86.64a7.11,7.11,0,0,0-.72.5,6.27,6.27,0,0,0-.73-.5,4.46,4.46,0,0,1-.85-.59c.46-1.07-.37-1.63-1.41-2.34l-.4-.28c-.31-.22-.42-.39-.42-.48s.11-.2.17-.24a.48.48,0,0,0-.52-.81,1.33,1.33,0,0,0-.61,1,1.57,1.57,0,0,0,.83,1.28l.41.28c1.11.75,1.18.88,1.06,1.17-.35.82.57,1.38,1.24,1.79a5.27,5.27,0,0,1,.74.49,2.91,2.91,0,0,1-2.91,2.9H65c-2.39.06-3.85.09-5-3a12.63,12.63,0,0,1-.36-3.24h.13a.48.48,0,1,0-.08-1h-.09v-.48H60a.47.47,0,0,0,.48-.48.48.48,0,0,0-.48-.48H59.6c-.12-1.4-.37-2.56-1.05-3.1a.51.51,0,0,0-.73.08.52.52,0,0,0,.07.74,3.9,3.9,0,0,1,.68,2.38H58c-.54-.41-1.09-.84-1.59-1.29l-.09-.09c-.17-.14-.34-.29-.49-.44l1.49.1h0a.48.48,0,0,0,.5-.46.47.47,0,0,0-.46-.5s-1-.08-2.57-.16c-3.49-4-3.58-7.83-3-9.58,0-.05,1.49-4.88.14-7a1.93,1.93,0,0,0-1.41-.91c-.4-.06-.52-.65-.64-1.47a5.8,5.8,0,0,0-.28-1.18,3.35,3.35,0,0,0-1-1.25,5.76,5.76,0,0,1-1.78-2.36,2.5,2.5,0,0,1,.06-2.62,2.09,2.09,0,0,1,1.33.35s4.83,3.54,6.92,3.54h.23c-1.93,1.38-3.06,3.14-3.06,4.87a.49.49,0,0,0,1,0c0-1.8,1.66-3.78,4.25-5a8.76,8.76,0,0,0,2.87-1,.47.47,0,0,0,.2-.65.49.49,0,0,0-.65-.2h0a10.07,10.07,0,0,1-4.85,1,10.13,10.13,0,0,1-3.76-1.64,5.31,5.31,0,0,0,6-1.11c2.57-2.45,4.17-3.3,12.19-3.3s9.62.86,12.19,3.3a5.27,5.27,0,0,0,3.7,1.57,6.43,6.43,0,0,0,2.21-.43,10.23,10.23,0,0,1-3.75,1.62,9.82,9.82,0,0,1-4.85-1,.49.49,0,0,0-.65.2.48.48,0,0,0,.18.64,8.71,8.71,0,0,0,2.9,1c2.56,1.29,4.25,3.21,4.25,5a.48.48,0,0,0,1,0c0-1.74-1.13-3.5-3.05-4.87h.28c2.1,0,6.88-3.51,6.92-3.54a2,2,0,0,1,1.32-.35,2.54,2.54,0,0,1,.07,2.62,5.82,5.82,0,0,1-1.79,2.35,3.49,3.49,0,0,0-1,1.25,6,6,0,0,0-.28,1.18c-.15.86-.27,1.42-.65,1.47a2,2,0,0,0-1.44.93c-1.35,2.12.13,7,.15,7,.56,1.75.46,5.61-3,9.57l-2.56.16a.5.5,0,0,0-.47.5.49.49,0,0,0,.5.47h0l1.5-.1C82.87,157.78,82.67,157.93,82.49,158.09Z"/><path class="cls-2" d="M78.88,142a.49.49,0,0,0,.37-.18l2-2.51a.48.48,0,1,0-.72-.63l0,0-2,2.51a.49.49,0,0,0,.08.68.52.52,0,0,0,.3.11Zm-2.38-1.29h.18a.49.49,0,0,0,.44-.31L78,138a.5.5,0,0,0-.28-.63.48.48,0,0,0-.62.28l-.9,2.36a.48.48,0,0,0,.23.64Zm-2-.2A.48.48,0,0,0,75,140h0l-.17-2.05a.48.48,0,0,0-1,.08l.16,2a.48.48,0,0,0,.52.45Z"/><circle class="cls-2" cx="61.79" cy="162.7" r="0.67"/><circle class="cls-2" cx="62.01" cy="164.99" r="0.67"/><circle class="cls-2" cx="63.77" cy="166.5" r="0.67"/><circle class="cls-2" cx="64.36" cy="164.15" r="0.67"/><circle class="cls-2" cx="66.23" cy="165.34" r="0.67"/><circle class="cls-2" cx="77.02" cy="162.7" r="0.67"/><circle class="cls-2" cx="76.79" cy="164.99" r="0.67"/><circle class="cls-2" cx="75.03" cy="166.5" r="0.67"/><circle class="cls-2" cx="74.44" cy="164.15" r="0.67"/><circle class="cls-2" cx="72.57" cy="165.34" r="0.67"/><path class="cls-2" d="M71.68,151.57a.48.48,0,0,0-.51.44h0a5.92,5.92,0,0,1-1.76,3.46A5.88,5.88,0,0,1,67.65,152a.48.48,0,0,0-.52-.44.48.48,0,0,0-.44.52,7,7,0,0,0,2.39,4.4.46.46,0,0,0,.6,0,7.11,7.11,0,0,0,2.4-4.4A.49.49,0,0,0,71.68,151.57Zm-8.46,1.74a.47.47,0,0,0-.64.17c-.13.22-.29.46-.47.71-.86,1.25-2.15,3.13-.32,5.13a.47.47,0,0,0,.67,0,.5.5,0,0,0,0-.59c-1.21-1.31-.59-2.45.41-3.91.19-.28.37-.53.51-.78a.47.47,0,0,0-.15-.66A.05.05,0,0,0,63.22,153.31Zm13,.17a.48.48,0,1,0-.84.48c.15.25.33.5.51.78,1,1.46,1.62,2.6.41,3.91a.48.48,0,1,0,.62.74l.09-.1c1.83-2,.53-3.85-.33-5.13C76.56,153.94,76.39,153.7,76.26,153.48ZM64.2,159.59a.48.48,0,0,0-.31-.6.49.49,0,0,0-.61.31,2.64,2.64,0,0,0,1.23,3.09.48.48,0,0,0,.65-.18.46.46,0,0,0-.17-.65A1.68,1.68,0,0,1,64.2,159.59Zm10.09,2.78a2.65,2.65,0,0,0,1.22-3.09.48.48,0,0,0-.6-.31.47.47,0,0,0-.31.6h0a1.7,1.7,0,0,1-.79,2,.48.48,0,1,0,.48.83Zm-3-2.68a2.46,2.46,0,0,1-3.47.23,2.5,2.5,0,0,1-.23-.23.49.49,0,0,0-.7-.05.5.5,0,0,0,0,.69,3.41,3.41,0,0,0,4.81.37,3.32,3.32,0,0,0,.38-.37.49.49,0,0,0-.06-.69.48.48,0,0,0-.69.05h0ZM56.9,150.3a.49.49,0,0,0-.67.14.48.48,0,0,0,.14.67l.07,0a4.43,4.43,0,0,1,2.41,2.79.49.49,0,0,0,1,0C59.82,153,58.73,151.31,56.9,150.3Zm25.71.2a.49.49,0,0,0-.64-.2c-1.84,1-3,2.65-3,3.65a.49.49,0,0,0,1,0,4.42,4.42,0,0,1,2.41-2.8.48.48,0,0,0,.21-.65Z"/></g><g id="_5afeb38c-54b7-45cf-8e8f-6e00f7dcb161" data-name="5afeb38c-54b7-45cf-8e8f-6e00f7dcb161"><path d="M115.54,167.1l-.58-1.44h-2.19l-.57,1.44h-.37l1.83-4.58h.41l1.83,4.58Zm-2.64-1.75h1.94l-.8-2-.17-.49h0l-.17.47Zm9-.49h1.88v2.24h-.28v-.8h0a1.38,1.38,0,0,1-.59.65h0a2,2,0,0,1-1,.22h0a2,2,0,0,1-1.09-.29h0a1.83,1.83,0,0,1-.73-.82h0a3,3,0,0,1-.25-1.25h0a2.91,2.91,0,0,1,.26-1.25h0a2,2,0,0,1,.73-.82h0a2.1,2.1,0,0,1,1.1-.29h0a2.11,2.11,0,0,1,1.15.28h0a1.64,1.64,0,0,1,.66.85h0l-.32.16h0a1.27,1.27,0,0,0-.53-.72h0a1.67,1.67,0,0,0-1-.25h0a1.6,1.6,0,0,0-.9.25h0a1.56,1.56,0,0,0-.6.71h0a2.42,2.42,0,0,0-.22,1.08h0a2.22,2.22,0,0,0,.46,1.5h0a1.55,1.55,0,0,0,1.25.55h0a1.7,1.7,0,0,0,.85-.2h0a1.34,1.34,0,0,0,.51-.52h0a1.42,1.42,0,0,0,.17-.7h0v-.25h-1.55Zm6.93,1.93h2.89v.31h-3.24v-4.58h3.13v.32h-2.78v1.77H131v.33h-2.2Zm10.89-4.27v4.58h-.43l-2.43-3.59-.34-.61h0l0,.57v3.63h-.33v-4.58h.44l2.42,3.59.35.62,0-.58v-3.63Zm8.54,3.42h0a1.7,1.7,0,0,1-.68.91h0a2,2,0,0,1-1.15.32h0a2,2,0,0,1-1.1-.29h0a1.83,1.83,0,0,1-.73-.82h0a2.88,2.88,0,0,1-.25-1.25h0a2.91,2.91,0,0,1,.25-1.25h0a1.88,1.88,0,0,1,.73-.82h0a2.06,2.06,0,0,1,1.09-.29h0a1.7,1.7,0,0,1,1.78,1.13h0l-.34.16h0a1.42,1.42,0,0,0-.51-.73h0a1.6,1.6,0,0,0-.91-.24h0a1.6,1.6,0,0,0-.9.25h0a1.52,1.52,0,0,0-.61.71h0a2.42,2.42,0,0,0-.22,1.08h0a2.47,2.47,0,0,0,.22,1.09h0a1.53,1.53,0,0,0,.59.71h0a1.7,1.7,0,0,0,.91.25h0a1.61,1.61,0,0,0,.94-.28h0a1.4,1.4,0,0,0,.54-.77h0Zm4.84.85H156v.31h-3.24v-4.58h3.13v.32h-2.78v1.77h2.2v.33h-2.2Zm14.46-4.27h0a2.31,2.31,0,0,1,1.69.58h0a2.24,2.24,0,0,1,.6,1.68h0a2.32,2.32,0,0,1-.6,1.72h0a2.28,2.28,0,0,1-1.69.6H166.1v-4.58Zm0,4.27h0a1.81,1.81,0,0,0,1.4-.53h0a2,2,0,0,0,.49-1.48h0a2,2,0,0,0-.49-1.44h0a1.87,1.87,0,0,0-1.4-.5h-1.13v3.95Zm7.24,0h2.89v.31h-3.24v-4.58h3.13v.32h-2.78v1.77H177v.33h-2.19Zm15.28-2.9-.92,3.21h-.43l-1.43-4.58h.37l1.27,4.3,1.2-4.3h.41l1.2,4.31,1.28-4.31h.36L192,167.1h-.42l-.93-3.21-.25-1h0Zm8,2.9H201v.31H197.8v-4.58h3.13v.32h-2.79v1.77h2.21v.33h-2.21Zm7.38.31v-4.58h1.61a1.71,1.71,0,0,1,1.13.31h0a1.15,1.15,0,0,1,.37.91h0a1.13,1.13,0,0,1-.22.68h0a1.07,1.07,0,0,1-.62.36h0a1.15,1.15,0,0,1,.7.36h0a1,1,0,0,1,.27.73h0a1.06,1.06,0,0,1-.43.91h0a1.91,1.91,0,0,1-1.2.32h-1.61Zm.34-2.47h1.28c.75,0,1.12-.3,1.12-.89h0c0-.6-.37-.9-1.12-.9h-1.28Zm0,2.16h1.34a1.41,1.41,0,0,0,.89-.24h0a.82.82,0,0,0,.29-.68h0a.83.83,0,0,0-.29-.69h0a1.48,1.48,0,0,0-.89-.23h-1.34Zm14.6-4.27h0a2.32,2.32,0,0,1,1.7.58h0a2.28,2.28,0,0,1,.59,1.68h0a2.36,2.36,0,0,1-.59,1.72h0a2.29,2.29,0,0,1-1.7.6H219v-4.58Zm0,4.27h0a1.82,1.82,0,0,0,1.41-.53h0a2,2,0,0,0,.49-1.48h0a2,2,0,0,0-.49-1.44h0a1.88,1.88,0,0,0-1.41-.5h-1.12v3.95Zm7.24,0h2.9v.31h-3.25v-4.58h3.13v.32h-2.78v1.77h2.2v.33h-2.2Zm8.79-4.34h0a1.7,1.7,0,0,1,1.73,1h0l-.3.25h0a1.33,1.33,0,0,0-.52-.72h0a1.62,1.62,0,0,0-.9-.22h0a1.73,1.73,0,0,0-.71.13h0a1,1,0,0,0-.45.33h0a.87.87,0,0,0-.16.49h0a.7.7,0,0,0,.14.44h0a1,1,0,0,0,.44.29h0a4.86,4.86,0,0,0,.88.22h0a3,3,0,0,1,1.27.45h0a1,1,0,0,1,.37.8h0a1.08,1.08,0,0,1-.21.66h0a1.38,1.38,0,0,1-.61.43h0a2.33,2.33,0,0,1-.9.16h0a2.32,2.32,0,0,1-1.22-.29h0a1.48,1.48,0,0,1-.68-.8h0l.31-.24h0a1.22,1.22,0,0,0,.56.75h0a1.87,1.87,0,0,0,1,.27h0a1.79,1.79,0,0,0,1-.25h0a.76.76,0,0,0,.38-.67h0a.66.66,0,0,0-.31-.58h0a2.78,2.78,0,0,0-1.07-.34h0a4.82,4.82,0,0,1-1-.28h0a1.22,1.22,0,0,1-.54-.39h0a1,1,0,0,1-.16-.59h0a1.07,1.07,0,0,1,.2-.65h0a1.35,1.35,0,0,1,.59-.48h0a2,2,0,0,1,.88-.18Zm6.7.07v4.58h-.35v-4.58Zm6.68,2.34h1.88v2.24h-.28v-.8h0a1.38,1.38,0,0,1-.59.65h0a2,2,0,0,1-1,.22h0a2,2,0,0,1-1.09-.29h0a1.87,1.87,0,0,1-.72-.82h0a2.88,2.88,0,0,1-.26-1.25h0a2.91,2.91,0,0,1,.26-1.25h0a2,2,0,0,1,.74-.82h0a2.06,2.06,0,0,1,1.09-.29h0a2.11,2.11,0,0,1,1.15.28h0a1.59,1.59,0,0,1,.66.85h0l-.31.16h0a1.34,1.34,0,0,0-.54-.72h0a1.67,1.67,0,0,0-1-.25h0a1.6,1.6,0,0,0-.9.25h0a1.56,1.56,0,0,0-.6.71h0a2.42,2.42,0,0,0-.22,1.08h0a2.22,2.22,0,0,0,.46,1.5h0a1.56,1.56,0,0,0,1.26.55h0a1.68,1.68,0,0,0,.84-.2h0a1.44,1.44,0,0,0,.52-.52h0a1.54,1.54,0,0,0,.17-.7h0v-.25H249.9Zm10.1-2.34v4.58h-.43l-2.43-3.59-.34-.61h0l0,.57v3.63h-.33v-4.58h.44l2.42,3.59.35.62,0-.58v-3.63Z"/></g></svg>